<svg width="42" height="42" viewBox="0 0 42 42" fill="none" xmlns="http://www.w3.org/2000/svg">
<g clip-path="url(#clip0_29_12)">
<path d="M13.38 24.0618C18.5829 23.5783 23.7859 23.0949 28.9888 22.6115C30.2909 22.4905 31.4663 21.3132 31.3152 19.9484C31.1692 18.6296 30.0428 17.4928 28.6521 17.622C23.4492 18.1054 18.2462 18.5889 13.0432 19.0723C11.7412 19.1933 10.5657 20.3706 10.7169 21.7354C10.8629 23.0542 11.9893 24.191 13.38 24.0618Z" fill="#01010C"/>
<path d="M12.7535 15.4644C17.9565 14.9809 23.1594 14.4975 28.3624 14.014C29.6644 13.8931 30.8399 12.7158 30.6887 11.351C30.5427 10.0322 29.4163 8.89537 28.0257 9.02459C22.8227 9.50804 17.6197 9.99148 12.4168 10.4749C11.1147 10.5959 9.93928 11.7732 10.0904 13.138C10.2364 14.4568 11.3628 15.5936 12.7535 15.4644Z" fill="#01010C"/>
<path d="M14.0599 33.3924C19.2628 32.9089 24.4658 32.4255 29.6688 31.942C30.9708 31.821 32.1463 30.6438 31.9951 29.2789C31.8491 27.9602 30.7227 26.8233 29.332 26.9526C24.1291 27.436 18.9261 27.9195 13.7232 28.4029C12.4211 28.5239 11.2457 29.7012 11.3968 31.066C11.5428 32.3847 12.6692 33.5216 14.0599 33.3924Z" fill="#01010C"/>
</g>
<defs>
<clipPath id="clip0_29_12">
<rect width="30.9012" height="29.6727" fill="white" transform="translate(26.5198 0.0773926) rotate(60)"/>
</clipPath>
</defs>
</svg>
