<svg width="38" height="38" viewBox="0 0 38 38" fill="none" xmlns="http://www.w3.org/2000/svg">
<g clip-path="url(#clip0_7_275)">
<path d="M19 16.4583C11.4 16.4583 4.90834 28.65 4.90834 34.6667C4.90834 36.5667 5.7 37.2 6.33334 37.675C7.28334 38.15 8.55 38.4667 10.7667 38.4667C11.875 38.4667 12.9833 38.4667 14.25 38.3083C15.8333 38.15 17.4167 37.9917 19 37.9917C20.5833 37.9917 22.1667 37.9917 23.5917 38.15C24.8583 38.15 26.125 38.3083 27.075 38.3083C31.5083 38.3083 32.9333 37.3583 32.9333 34.6667C33.0917 28.65 26.6 16.4583 19 16.4583ZM9.18334 16.775C9.18334 15.35 7.91667 9.65 5.54167 9.65C3.00834 9.65 1.74167 15.35 1.74167 16.775C1.74167 18.8333 3.48334 20.4167 5.54167 20.4167C7.6 20.4167 9.18334 18.8333 9.18334 16.775ZM13.9333 13.7667C15.9917 13.7667 17.575 12.025 17.575 10.125C17.575 8.7 16.3083 3 13.9333 3C11.4 3 10.1333 8.7 10.1333 10.125C10.2917 12.025 11.875 13.7667 13.9333 13.7667ZM32.4583 9.65C29.925 9.65 28.6583 15.35 28.6583 16.775C28.6583 18.8333 30.4 20.4167 32.4583 20.4167C34.5167 20.4167 36.2583 18.675 36.2583 16.775C36.2583 15.35 34.9917 9.65 32.4583 9.65ZM24.0667 13.7667C26.125 13.7667 27.7083 12.025 27.7083 10.125C27.7083 8.7 26.4417 3 24.0667 3C21.5333 3 20.2667 8.7 20.2667 10.125C20.2667 12.025 22.0083 13.7667 24.0667 13.7667Z" fill="#4171AF"/>
</g>
<defs>
<clipPath id="clip0_7_275">
<rect width="38" height="38" fill="white"/>
</clipPath>
</defs>
</svg>
