<svg width="41" height="39" viewBox="0 0 41 39" fill="none" xmlns="http://www.w3.org/2000/svg">
<g clip-path="url(#clip0_8_352)">
<path d="M19.7055 28.0092C17.5496 28.9146 15.6949 30.1585 13.7731 31.4727C12.0299 32.6649 10.3195 33.7308 8.19776 34.044L11.2731 37.1193C11.641 34.7151 12.009 32.3109 12.377 29.9067C12.5487 28.7847 12.7207 27.6628 12.8922 26.5408C13.0821 25.2985 12.8095 24.5494 12.1663 23.5038C9.95344 19.9063 7.05508 16.8869 3.67009 14.3813L2.40829 19.04C4.74063 18.9907 7.08034 18.7219 9.35918 18.2172C10.3907 17.9887 11.411 17.7078 12.414 17.3757C13.4841 17.0213 14.8404 16.6842 15.675 15.9066C16.4511 15.1834 16.7308 14.1426 17.1195 13.1846L18.4203 9.97761L21.2078 3.10556L16.6384 3.70276C18.9895 6.88655 20.9548 10.3479 22.3643 14.0501C22.7616 15.0934 23.5996 15.8855 24.775 15.8855C25.8303 15.8855 26.9539 15.115 27.1857 14.0501L27.2486 13.7612L24.8379 15.5966L37.8674 17.1061L36.0997 12.8384C34.3831 14.6418 32.6666 16.4453 30.9501 18.2487C30.149 19.0903 29.348 19.9319 28.5469 20.7736C27.8968 21.4566 27.0856 22.1204 26.8468 23.071C26.578 24.141 26.7131 25.4719 26.7524 26.5667C26.792 27.6678 26.8829 28.7654 27.0153 29.859C27.3081 32.2763 27.7839 34.6445 28.4864 36.9765L31.5617 33.9012C29.7327 33.2889 27.9905 32.5173 26.3135 31.5628C24.9659 30.7958 23.1163 29.8843 22.1379 28.6521C21.2976 27.5939 19.4803 27.7742 18.6024 28.6521C17.5571 29.6974 17.7599 31.1267 18.6024 32.1877C19.1852 32.9216 20.1615 33.4908 20.9171 34.0353C21.8409 34.701 22.8004 35.317 23.7899 35.8802C25.8314 37.0421 28.0064 37.9773 30.2325 38.7226C32.0384 39.3272 33.839 37.4108 33.3078 35.6473C32.7151 33.6798 32.2373 31.6665 31.9878 29.6246C31.8638 28.6101 31.7891 27.588 31.7524 26.5667C31.7355 26.0951 31.7274 25.623 31.7283 25.1511C31.7288 24.8364 31.7333 24.5218 31.7418 24.2073C31.6824 24.3645 31.6669 24.3914 31.6955 24.288L31.0526 25.3912C33.9135 22.3854 36.7743 19.3796 39.6352 16.3739C41.2486 14.6789 39.9576 12.3483 37.8675 12.1061L24.8379 10.5966C23.8121 10.4778 22.6402 11.4535 22.4272 12.432L22.3644 12.7208H27.1858C25.6172 8.60096 23.5765 4.72813 20.9558 1.17915C19.6118 -0.640814 17.2231 -0.286314 16.3864 1.77635L11.7406 13.2298L12.3835 12.1266L12.1032 12.4074L13.2063 11.7645C9.74568 13.1699 6.14404 13.9611 2.40833 14.04C-0.23982 14.096 -0.77007 17.28 1.14653 18.6987C4.10991 20.8922 6.53484 23.7237 8.3707 26.9091L8.11868 24.9827C7.37652 28.5342 7.00075 32.203 6.4517 35.7901C6.14464 37.7962 7.52994 39.1601 9.527 38.8654C14.0801 38.1934 16.9743 34.5359 21.0348 32.8306C22.2787 32.3082 23.1716 31.1772 22.7809 29.7553C22.4585 28.5824 20.9583 27.483 19.7055 28.0092Z" fill="#FEC677"/>
</g>
<defs>
<clipPath id="clip0_8_352">
<rect width="40.3611" height="38.9054" fill="white"/>
</clipPath>
</defs>
</svg>
